<svg width="279" height="237" viewBox="0 0 279 237" fill="none" xmlns="http://www.w3.org/2000/svg">
<g clip-path="url(#clip0_1_78)">
<path d="M60.7 140.4L100.5 123.9C112.9 118.8 127.3 122.7 135.4 133.4L211.2 233.6H73.6L60.7 140.4Z" fill="#0981E2"/>
<path d="M157.5 110.6C173.185 110.6 185.9 97.8849 185.9 82.2C185.9 66.5151 173.185 53.8 157.5 53.8C141.815 53.8 129.1 66.5151 129.1 82.2C129.1 97.8849 141.815 110.6 157.5 110.6Z" fill="black"/>
<path d="M56.0827 113.507C59.6871 98.2427 50.2347 82.9464 34.9701 79.342C19.7056 75.7376 4.40933 85.1901 0.804945 100.455C-2.79944 115.719 6.65298 131.015 21.9175 134.62C37.182 138.224 52.4783 128.772 56.0827 113.507Z" fill="black"/>
<path d="M86.6 126.5C57.6 126.5 34 103 34 73.9V57.2C34 28.2 57.5 4.59999 86.6 4.59999C115.6 4.59999 139.2 28.1 139.2 57.2V73.9C139.2 103 115.6 126.5 86.6 126.5Z" fill="black"/>
<path d="M99.5 96.7C75.3 96.7 55.6 77.1 55.6 52.8V43.8C55.6 19.6 75.3 0 99.5 0C123.7 0 143.4 19.6 143.4 43.9V52.9C143.3 77.1 123.7 96.7 99.5 96.7Z" fill="black"/>
<path d="M135.6 66.5L145.1 63.7C150.9 62 154.2 55.9 152.5 50.1C150.8 44.3 144.7 41 138.9 42.7L129.4 45.5C123.6 47.2 120.3 53.3 122 59.1C123.7 64.9 129.8 68.2 135.6 66.5Z" fill="white"/>
<path d="M132.4 67.9C130.4 67.9 128.5 67.4 126.7 66.5C123.9 65 121.8 62.5 120.9 59.4C120 56.3 120.3 53.1 121.8 50.3C123.3 47.5 125.8 45.4 128.9 44.5L138.4 41.7C141.5 40.8 144.7 41.1 147.5 42.6C150.3 44.1 152.4 46.6 153.3 49.7C155.2 56 151.6 62.7 145.3 64.6L135.8 67.4C134.7 67.8 133.6 67.9 132.4 67.9ZM142 43.2C141 43.2 140.1 43.3 139.2 43.6L129.7 46.4C127.2 47.2 125.1 48.9 123.8 51.2C122.5 53.5 122.3 56.2 123 58.8C123.8 61.3 125.5 63.4 127.8 64.7C130.1 66 132.8 66.2 135.4 65.5L144.9 62.7C147.4 61.9 149.5 60.2 150.8 57.9C152.1 55.6 152.3 52.9 151.6 50.3C150.8 47.8 149.1 45.7 146.8 44.4C145.2 43.6 143.6 43.2 142 43.2Z" fill="#080717"/>
<path d="M53.9 87.5L44 87.3C38 87.2 33.1 82.2 33.3 76.2C33.4 70.2 38.4 65.3 44.4 65.5L54.3 65.7C60.3 65.8 65.2 70.8 65 76.8C64.9 82.8 59.9 87.6 53.9 87.5Z" fill="white"/>
<path d="M54.1 88.5C54 88.5 54 88.5 53.9 88.5L44 88.3C40.8 88.2 37.8 86.9 35.6 84.6C33.4 82.3 32.2 79.3 32.3 76.1C32.4 69.5 37.9 64.3 44.5 64.4L54.4 64.6C61 64.7 66.2 70.2 66.1 76.8C66 80 64.7 83 62.4 85.2C60.1 87.3 57.2 88.5 54.1 88.5ZM44.2 66.4C38.8 66.4 34.4 70.7 34.3 76.2C34.3 78.9 35.2 81.4 37.1 83.3C38.9 85.2 41.4 86.3 44.1 86.3L54 86.5C56.7 86.6 59.2 85.6 61.1 83.7C63 81.9 64.1 79.4 64.1 76.7C64.2 71.2 59.8 66.7 54.3 66.6L44.4 66.4C44.3 66.4 44.2 66.4 44.2 66.4Z" fill="#080717"/>
<path d="M73.4562 139.014C84.547 127.923 84.547 109.941 73.4562 98.8507C62.3654 87.7599 44.3837 87.7599 33.2929 98.8507C22.2021 109.941 22.2021 127.923 33.2929 139.014C44.3837 150.105 62.3654 150.105 73.4562 139.014Z" fill="black"/>
<path d="M165.487 110.33C169.092 95.0659 159.639 79.7697 144.375 76.1653C129.11 72.5609 113.814 82.0133 110.21 97.2778C106.605 112.542 116.058 127.839 131.322 131.443C146.587 135.047 161.883 125.595 165.487 110.33Z" fill="black"/>
<path d="M109 177.6C94.9 179.8 81.7 170.1 79.5 156L69.7 93L120.8 85.1L130.6 148.1C132.8 162.2 123.1 175.4 109 177.6Z" fill="white"/>
<path d="M105 178.9C99.3 178.9 93.9 177.1 89.2 173.7C83.4 169.5 79.6 163.2 78.5 156.2L68.7 93.2C68.7 92.9 68.7 92.7 68.9 92.5C69.1 92.3 69.3 92.1 69.6 92.1L120.7 84.2C121.2 84.1 121.8 84.5 121.8 85L131.6 148C133.9 162.6 123.8 176.4 109.2 178.6C107.8 178.8 106.4 178.9 105 178.9ZM70.9 93.8L80.5 155.8C81.5 162.4 85 168.1 90.4 172C95.8 175.9 102.3 177.5 108.9 176.5C122.4 174.4 131.7 161.7 129.6 148.2L120 86.2L70.9 93.8Z" fill="black"/>
<path d="M94.9 126.5C70.4 126.5 50.6 106.7 50.6 82.2V68.1C50.6 43.6 70.4 23.8 94.9 23.8C119.4 23.8 139.2 43.6 139.2 68.1V82.2C139.2 106.7 119.3 126.5 94.9 126.5Z" fill="white"/>
<path d="M48.3 65.1C68.6 59.9 83.6 41.4 83.6 19.4V19.3C63.3 24.6 48.3 43.1 48.3 65.1Z" fill="black"/>
<path d="M68.9 60.1C68.8 60.1 68.7 60.1 68.6 60C68.3 59.9 68.1 59.7 68 59.4C67.8 58.9 68.1 58.3 68.6 58.1C79.9 50.9 85.1 36.9 81 24L81.9 23.7L82.9 23.4C87.3 37.3 81.7 52.3 69.4 60C69.3 60.1 69.1 60.1 68.9 60.1Z" fill="black"/>
<path d="M132.2 40.2C112.1 46.2 89.7 38.1 78.4 19.2V19.1C98.5 13.2 120.8 21.3 132.2 40.2Z" fill="black"/>
<path d="M94.9 127.5C69.9 127.5 49.6 107.2 49.6 82.2C49.6 81.6 50 81.2 50.6 81.2C51.2 81.2 51.6 81.6 51.6 82.2C51.6 106.1 71 125.5 94.9 125.5C104.8 125.5 114.5 122 122.2 115.8C122.6 115.5 123.3 115.5 123.6 115.9C123.9 116.3 123.9 117 123.5 117.3C115.4 123.9 105.3 127.5 94.9 127.5Z" fill="black"/>
<path d="M138.1 58.7C137.6 58.7 137.2 58.4 137.1 57.9C136 51.1 141.5 47.6 141.7 47.5C142.2 47.2 142.8 47.4 143.1 47.8C143.4 48.3 143.2 48.9 142.8 49.2C142.6 49.3 138.2 52.1 139.1 57.6C139.2 58.1 138.8 58.7 138.3 58.8C138.2 58.7 138.2 58.7 138.1 58.7Z" fill="black"/>
<path d="M50.4 82.3C49.9 82.3 49.5 81.9 49.4 81.4C48.8 75.9 43.8 74.4 43.6 74.3C43.1 74.1 42.8 73.6 42.9 73.1C43 72.6 43.6 72.3 44.1 72.4C44.4 72.5 50.6 74.3 51.4 81.2C51.5 81.7 51.1 82.2 50.5 82.3C50.5 82.3 50.5 82.3 50.4 82.3Z" fill="black"/>
<path d="M82.4 55.7C83.1 57.4 79.8 60.3 75.1 62.1C70.4 63.9 66 64 65.4 62.3C64.7 60.6 68 57.7 72.7 55.9C77.4 54.1 81.8 54 82.4 55.7Z" fill="black"/>
<path d="M116.176 53.3131C116.301 51.495 112.338 49.7416 107.325 49.3969C102.311 49.0522 98.1452 50.2466 98.0202 52.0648C97.8952 53.883 101.858 55.6363 106.872 55.981C111.886 56.3257 116.051 55.1313 116.176 53.3131Z" fill="black"/>
<path d="M70.4 73.1C70.2 73.1 70 73 69.8 72.9C69.3 72.6 69.2 72 69.5 71.5C73.4 65.8 79.8 67.5 82.7 69.1C83.2 69.4 83.3 70 83.1 70.5C82.8 71 82.2 71.1 81.7 70.9C81.4 70.7 75 67.2 71.1 72.7C71 72.9 70.7 73.1 70.4 73.1Z" fill="black"/>
<path d="M104.8 65C105.3 67.4 107 69.1 108.6 68.8C110.1 68.5 111 66.2 110.4 63.8C109.9 61.4 108.2 59.7 106.6 60C105.1 60.3 104.2 62.6 104.8 65Z" fill="black"/>
<path d="M96 83.5H95.9C93.9 83.3 92.2 82.3 91 80.7C89.8 79.1 89.4 77.1 89.8 75.2L92.2 63.5C92.3 63 92.8 62.6 93.4 62.7C93.9 62.8 94.3 63.3 94.2 63.9L91.8 75.6C91.5 77 91.8 78.4 92.7 79.5C93.5 80.6 94.8 81.4 96.2 81.5C96.7 81.6 97.1 82 97.1 82.6C96.9 83.1 96.5 83.5 96 83.5Z" fill="black"/>
<path d="M103.3 95.8C102.8 95.8 102.4 95.4 102.3 94.9C102.2 94.4 102.6 93.9 103.2 93.8C105.5 93.5 107.3 92.5 108.3 90.9C110.9 87 109.1 80.6 109.1 80.5C109 80 109.3 79.4 109.8 79.3C110.3 79.2 110.9 79.5 111 80C111.1 80.3 113 87.4 109.9 92C108.5 94.1 106.3 95.4 103.3 95.8Z" fill="black"/>
<path d="M213.6 44.2L269.7 26.4L278.8 39L213.6 44.2Z" fill="#0981E2"/>
<path d="M223 62.5L267 57.7L267.6 70.6L223 62.5Z" fill="#0981E2"/>
<path d="M212.8 32.6L232.1 12.7L236.3 21.8L212.8 32.6Z" fill="#0981E2"/>
<path d="M235.8 155.7C235.1 154.7 234.2 153.9 233.3 153.3V153.2L228.3 145.2C227.8 144.6 227.3 144 226.7 143.6L222.5 135.4C222.5 135.3 222.4 135.3 222.4 135.2C222 134.7 221.6 134.2 221.1 133.8C221.1 133.7 221.1 133.6 221 133.4L216.4 123.9C216.4 123.8 216.3 123.8 216.3 123.7C213 119.3 206.9 118.1 202.1 120.8L192.2 126.5C192.1 126.6 192 126.6 191.9 126.7C189.1 123.5 184.6 122.3 180.6 124C176.5 125.7 174 129.7 174.3 134.2L176.3 157.7V168.8C176.3 178.1 178.9 187.2 183.8 195.1L189.8 204.8L186.1 233.3C186.1 233.6 186.2 234 186.4 234.3C186.6 234.6 186.9 234.7 187.3 234.7L228.2 235.6C228.5 235.6 228.8 235.5 229 235.3C229.2 235.1 229.4 234.8 229.4 234.4V206.2L234.7 194.7C236.9 190.1 238.1 185.1 238.3 180L238.9 166.3C239.2 162.4 238.1 158.7 235.8 155.7Z" fill="white"/>
<path d="M189 150.4C188.9 150.4 188.9 150.4 188.8 150.4L188.1 150.3C185.7 149.9 183.5 148.7 181.9 147L180.5 145.5C180.2 145.2 180.2 144.8 180.3 144.4L184.7 135C186.3 131.5 189 128.6 192.3 126.7L202.2 121C206.9 118.3 212.8 119.5 216.1 123.8C216.1 123.9 216.2 123.9 216.2 124L220.8 133.5C221 134 220.8 134.6 220.3 134.8C219.8 135 219.2 134.8 219 134.3L214.5 124.9C211.8 121.5 207 120.5 203.3 122.7L193.4 128.4C190.4 130.1 188.1 132.7 186.6 135.8L182.5 144.6L183.5 145.7C184.8 147.1 186.6 148.1 188.5 148.4L189.2 148.5C189.7 148.6 190.1 149.1 190 149.7C189.9 150.1 189.5 150.4 189 150.4Z" fill="#080717"/>
<path d="M195.1 161.9C195 161.9 195 161.9 194.9 161.9L194.2 161.8C191.8 161.4 189.6 160.2 188 158.5L186.6 157C186.3 156.7 186.3 156.3 186.4 155.9L190.8 146.5C192.4 143 195.1 140.1 198.4 138.2L208.3 132.5C213 129.8 218.9 131 222.2 135.3L222.3 135.4L226.5 143.7C226.8 144.2 226.6 144.8 226.1 145C225.6 145.3 225 145.1 224.8 144.6L220.6 136.4C217.9 133 213.1 132 209.3 134.2L199.4 139.9C196.4 141.6 194.1 144.2 192.6 147.3L188.5 156.1L189.5 157.2C190.8 158.6 192.6 159.6 194.5 159.9L195.2 160C195.7 160.1 196.1 160.6 196 161.2C196 161.5 195.5 161.9 195.1 161.9Z" fill="#080717"/>
<path d="M200.9 171.9C200.8 171.9 200.8 171.9 200.7 171.9L200 171.8C197.6 171.4 195.4 170.2 193.8 168.5L192.4 167C192.1 166.7 192.1 166.3 192.2 165.9L196.6 156.5C198.2 153 200.9 150.1 204.2 148.2L214.1 142.5C218.8 139.8 224.7 141 228 145.3L233 153.3C233.3 153.8 233.1 154.4 232.7 154.7C232.2 155 231.6 154.8 231.3 154.4L226.4 146.5C223.8 143.1 218.9 142.1 215.1 144.3L205.2 150C202.2 151.7 199.9 154.3 198.4 157.4L194.3 166.2L195.3 167.3C196.6 168.7 198.4 169.7 200.3 170L201 170.1C201.5 170.2 201.9 170.7 201.8 171.3C201.8 171.6 201.4 171.9 200.9 171.9Z" fill="#080717"/>
<path d="M228.3 236.4C227.7 236.4 227.3 236 227.3 235.4V205.7C227.3 205.6 227.3 205.4 227.4 205.3L232.8 193.6C234.8 189.2 236 184.6 236.2 179.7L236.8 166C236.9 162.8 236 159.6 234 157.1C231.4 153.6 226.5 152.6 222.7 154.8L212.8 160.5C209.8 162.2 207.5 164.8 206 167.9L201.9 176.7L202.9 177.8C203.1 178 203.4 178.3 204.2 178.8C207.3 180.7 211.3 180.6 214.4 178.6L223.5 172.6C224 172.3 224.6 172.4 224.9 172.9C225.2 173.4 225.1 174 224.6 174.3L215.5 180.3C211.7 182.8 206.9 182.9 203.1 180.6C202.4 180.1 201.8 179.7 201.4 179.3L200 177.8C199.7 177.5 199.7 177.1 199.8 176.7L204.2 167.3C205.8 163.8 208.5 160.9 211.8 159L221.7 153.3C226.4 150.6 232.3 151.8 235.6 156.1C237.8 159 239 162.7 238.8 166.3L238.2 180C238 185.1 236.8 190 234.6 194.6L229.3 206.1V235.6C229.3 236 228.9 236.4 228.3 236.4Z" fill="#080717"/>
<path d="M205.6 206C205.3 206 204.9 205.8 204.7 205.5C204.4 205 197.7 193 202.7 179.1C202.9 178.6 203.5 178.3 204 178.5C204.5 178.7 204.8 179.3 204.6 179.8C200 192.8 206.4 204.4 206.5 204.5C206.8 205 206.6 205.6 206.1 205.9C206 206 205.8 206 205.6 206Z" fill="#080717"/>
<path d="M197.46 108.236L180.419 116.863L187.285 130.425L204.326 121.797L197.46 108.236Z" fill="#080717"/>
<path d="M188.675 114.246C211.531 99.8591 215.702 65.3867 197.991 37.2493C180.28 9.11194 147.394 -2.03538 124.538 12.3511C101.683 26.7376 97.5119 61.21 115.223 89.3474C132.934 117.485 165.82 128.632 188.675 114.246Z" fill="#080717"/>
<path d="M166.4 121.5C147.3 121.5 127 109.9 114.4 89.9C105.7 76.1 101.9 60.4 103.7 45.6C105.5 30.8 112.7 18.7 124 11.5C135.3 4.4 149.3 3.1 163.5 7.9C177.6 12.7 190.1 22.9 198.8 36.7C216.8 65.3 212.5 100.4 189.2 115C182.3 119.4 174.5 121.5 166.4 121.5ZM146.8 7.1C139 7.1 131.5 9.2 125.1 13.2C114.3 20 107.4 31.6 105.7 45.8C104 60.1 107.7 75.4 116.1 88.8C133.5 116.4 165.8 127.5 188.1 113.4C210.4 99.3 214.5 65.4 197.1 37.8C188.7 24.4 176.5 14.4 162.8 9.8C157.4 8 152 7.1 146.8 7.1Z" fill="#080717"/>
<path d="M192.76 112.557C215.616 98.1703 219.786 63.6978 202.076 35.5604C184.365 7.42305 151.479 -3.72426 128.623 10.6622C105.767 25.0487 101.596 59.5211 119.307 87.6585C137.018 115.796 169.904 126.943 192.76 112.557Z" fill="white"/>
<path d="M170.5 119.8C151.4 119.8 131.1 108.2 118.5 88.2C109.8 74.4 106 58.7 107.8 43.9C109.6 29.1 116.8 17 128.1 9.79999C139.4 2.69999 153.4 1.39999 167.6 6.19999C181.7 11 194.2 21.2 202.9 35C220.9 63.6 216.6 98.7 193.3 113.3C186.4 117.8 178.6 119.8 170.5 119.8ZM150.9 5.39999C143.1 5.39999 135.6 7.49999 129.2 11.5C118.4 18.3 111.5 29.9 109.8 44.1C108.1 58.4 111.8 73.7 120.2 87.1C137.6 114.7 169.9 125.8 192.2 111.7C214.5 97.6 218.6 63.7 201.2 36.1C192.8 22.7 180.6 12.7 166.9 8.09999C161.5 6.29999 156.1 5.39999 150.9 5.39999Z" fill="#080717"/>
<path d="M187.966 104.94C207.41 92.7016 210.961 63.3804 195.898 39.4496C180.834 15.5188 152.861 6.04053 133.417 18.2793C113.974 30.5181 110.422 59.8394 125.485 83.7702C140.549 107.701 168.522 117.179 187.966 104.94Z" fill="white"/>
<path d="M169 111.3C164.4 111.3 159.6 110.5 154.7 108.9C142.7 104.8 132 96.1 124.6 84.3C117.2 72.5 113.9 59.1 115.5 46.5C117 33.8 123.2 23.5 132.9 17.4C142.6 11.3 154.5 10.2 166.6 14.3C178.6 18.4 189.3 27.1 196.7 38.9C212 63.3 208.4 93.3 188.5 105.8C182.7 109.5 176.1 111.3 169 111.3ZM152.4 13.9C145.8 13.9 139.5 15.6 134 19.1C124.9 24.9 119 34.7 117.6 46.7C116.1 58.8 119.3 71.8 126.4 83.2C133.6 94.6 143.9 103 155.5 107C167 110.9 178.4 109.9 187.5 104.1C206.4 92.2 209.8 63.4 195.1 40C187.9 28.6 177.6 20.2 166 16.2C161.4 14.7 156.8 13.9 152.4 13.9Z" fill="#080717"/>
<path d="M186.9 235.2H186.8C186.3 235.1 185.9 234.6 186 234.1L190.2 204.6L184.1 194.9C179.2 187 176.6 178 176.6 168.7V157.6L174.6 134.1C174.2 129.8 176.7 125.8 180.7 124.2C184.7 122.6 189.3 123.8 192 127.1L192.1 127.2C192.4 127.6 192.4 128.3 191.9 128.6C191.5 128.9 190.8 128.9 190.5 128.4L190.4 128.3C188.2 125.6 184.6 124.7 181.4 126C178.2 127.3 176.2 130.5 176.5 133.9L178.5 157.5V168.7C178.5 177.6 181 186.3 185.7 193.9L192 203.9C192.1 204.1 192.2 204.3 192.1 204.6L187.9 234.4C187.9 234.8 187.4 235.2 186.9 235.2Z" fill="#080717"/>
<path d="M161.3 86.2C161.2 86.2 161.1 86.2 161 86.2H160.9H160.8C160.5 86.2 160.2 86.2 159.9 86.2C159.8 86.2 159.7 86.2 159.6 86.2C159.3 86.2 159.1 86.2 158.8 86.1C148.9 85.2 139.5 76.5 132.6 70.3C129.7 67.7 127.3 65.4 125.3 64.2C124.6 63.7 123.8 63.1 123.8 62.2C123.8 61.3 124.6 60.6 125.3 60.2C127.3 58.9 129.8 56.7 132.6 54.1C139.5 47.8 148.9 39.2 158.8 38.3C159.1 38.3 159.3 38.3 159.6 38.2C159.7 38.2 159.8 38.2 160 38.2C160.3 38.2 160.6 38.1 160.9 38.2H161H161.1C161.4 38.2 161.7 38.2 162 38.2C162.1 38.2 162.2 38.2 162.3 38.2C162.6 38.2 162.8 38.2 163.1 38.3C173 39.2 182.4 47.9 189.3 54.1C191.9 56.4 194.1 58.5 196 59.8C196.8 60.4 197.7 61.2 197.7 62.3C197.7 63.4 196.8 64.2 196.1 64.7C194.2 66 192 68.1 189.4 70.5C182.5 76.8 173.1 85.4 163.2 86.3C162.9 86.3 162.7 86.3 162.4 86.4C162.3 86.4 162.2 86.4 162 86.4C161.7 86.2 161.5 86.2 161.3 86.2ZM160.9 84.2C161 84.2 161.1 84.2 161.2 84.2C161.4 84.2 161.6 84.2 161.8 84.2C162 84.2 162.1 84.2 162.3 84.2C162.5 84.2 162.8 84.2 163 84.1C172.2 83.2 181 75.2 188.1 68.8C190.8 66.4 193.1 64.3 195 62.9C195.8 62.4 195.8 62.1 195.8 62.1C195.8 62.1 195.7 61.8 194.9 61.2C192.9 59.8 190.7 57.7 188.1 55.4C181.1 49 172.3 41 163.1 40.1C162.8 40.1 162.6 40.1 162.4 40C162.3 40 162.1 40 162 40C161.8 40 161.6 40 161.4 40C161.3 40 161.2 40 161.2 40C161.1 40 161 40 160.9 40C160.7 40 160.5 40 160.3 40C160.1 40 160 40 159.8 40C159.6 40 159.3 40 159.1 40.1C149.9 41 141.1 49 134 55.4C131.1 58.1 128.5 60.4 126.4 61.8C126.2 62 126 62.1 125.9 62.1C126 62.2 126.1 62.3 126.4 62.5C128.5 63.9 131 66.2 134 68.9C141 75.3 149.8 83.3 159 84.2C159.3 84.2 159.5 84.2 159.7 84.3C159.8 84.3 160 84.3 160.1 84.3C160.3 84.3 160.5 84.3 160.7 84.3C160.7 84.2 160.8 84.2 160.9 84.2Z" fill="#1D1D1B"/>
<path d="M175.298 65.5011C177.201 57.4389 172.209 49.3599 164.147 47.4561C156.084 45.5524 148.005 50.5449 146.102 58.6071C144.198 66.6694 149.19 74.7484 157.253 76.6521C165.315 78.5559 173.394 73.5634 175.298 65.5011Z" fill="#080717"/>
<path d="M170.7 63.6C174.676 63.6 177.9 60.3764 177.9 56.4C177.9 52.4235 174.676 49.2 170.7 49.2C166.724 49.2 163.5 52.4235 163.5 56.4C163.5 60.3764 166.724 63.6 170.7 63.6Z" fill="white"/>
<path d="M17.1 233.6L35.4 161.6C39.4 145.9 53.6 135.1 69.7 135.2C81.2 135.3 91.9 141.1 98.3 150.6L154.2 233.5H17.1V233.6Z" fill="#0981E2"/>
<path d="M144.5 234C144.1 234 143.7 233.8 143.5 233.4L106.7 170.2C106.4 169.6 106.6 168.9 107.1 168.6C107.7 168.3 108.4 168.5 108.7 169L145.5 232.2C145.8 232.8 145.6 233.5 145.1 233.8C144.9 234 144.7 234 144.5 234Z" fill="#080717"/>
</g>
<defs>
<clipPath id="clip0_1_78">
<rect width="278.8" height="236.4" fill="white"/>
</clipPath>
</defs>
</svg>
