<svg width="201" height="182" viewBox="0 0 201 182" fill="none" xmlns="http://www.w3.org/2000/svg">
<g clip-path="url(#clip0_4_2)">
<path d="M180.562 101.338C186.19 65.7013 161.863 32.2496 126.226 26.6216C90.5895 20.9936 57.1377 45.3205 51.5097 80.9573C45.8817 116.594 70.2086 150.046 105.845 155.674C141.482 161.302 174.934 136.975 180.562 101.338Z" fill="#0981E2"/>
<path d="M33.9767 49.1824L30.598 43.1757C24.4411 42.8753 18.7347 39.4215 15.7313 34.0154C11.001 25.3808 14.0795 14.5686 22.7141 9.76327C26.8438 7.43566 31.7242 6.91007 36.3043 8.1865C40.8845 9.46293 44.6387 12.5414 46.9663 16.671C49.9696 22.0771 49.8946 28.6844 46.8912 34.0905L50.27 40.0972L33.9767 49.1824ZM17.0828 33.2646C19.8609 38.3703 25.267 41.5238 31.0485 41.674H31.499L34.5023 47.1551L48.0925 39.5716L45.0892 34.0905L45.3144 33.7151C48.3178 28.6844 48.3929 22.4525 45.6148 17.4218C43.5124 13.5926 40.0585 10.8144 35.8538 9.6131C31.6491 8.48684 27.2192 8.93734 23.465 11.1148C15.5812 15.4697 12.728 25.3808 17.0828 33.2646Z" fill="#282D33"/>
<path d="M17.0828 33.2646C19.8609 38.3703 25.267 41.5238 31.0485 41.674H31.499L34.5023 47.1551L48.0925 39.5716L45.0892 34.0905L45.3144 33.7151C48.3178 28.6844 48.3929 22.4525 45.6148 17.4218C43.5124 13.5926 40.0585 10.8144 35.8538 9.6131C31.6491 8.48684 27.2192 8.93734 23.465 11.1148C15.5812 15.4697 12.728 25.3808 17.0828 33.2646Z" fill="#FBCD16"/>
<path d="M39.344 46.3269C39.0437 46.3269 38.8184 46.1767 38.6683 45.9514C38.5932 45.8763 34.2383 37.1666 30.8595 31.4602C29.2828 31.8356 27.6309 31.7605 26.2043 31.235C24.4023 30.6343 23.201 29.4329 22.8255 27.8562C22.5252 26.7299 23.2761 25.3784 24.5525 24.7777C25.2282 24.4774 27.706 23.7266 30.1838 27.5558C30.6343 28.1565 31.0848 28.9074 31.5353 29.7333C32.3612 29.4329 33.2622 28.9824 34.0882 28.3818C34.3885 28.1565 34.6137 27.9313 34.9141 27.706C33.4124 24.7026 32.2111 22.0747 31.9107 20.6481C31.6104 19.2215 32.8868 17.1942 34.4636 16.4434C36.0403 15.6926 37.6922 16.1431 39.0437 17.7198C39.7945 18.5458 40.0198 19.7471 39.8696 21.2488C39.5693 23.5013 38.3679 26.1292 36.7161 28.0063C40.0198 34.4636 44.675 42.1972 44.7501 42.2723C44.9753 42.6477 44.8252 43.0982 44.5248 43.3235C44.1494 43.5487 43.6989 43.3986 43.4737 43.0982C43.1733 42.6477 38.8935 35.4397 35.6649 29.1326C35.4397 29.2828 35.2144 29.508 34.9892 29.6582C34.1632 30.2589 33.2622 30.7845 32.2861 31.0848C35.5898 36.7912 39.7195 44.9003 39.9447 45.3508C40.0949 45.7262 40.0198 46.1767 39.6444 46.3269C39.5693 46.2518 39.4191 46.3269 39.344 46.3269ZM25.904 25.904C25.6787 25.904 25.4535 25.9791 25.2282 26.0542C24.5525 26.3545 24.2521 27.0303 24.3272 27.4057C24.6276 28.4568 25.5286 29.3579 26.805 29.8084C27.706 30.1087 28.8323 30.2589 30.1087 30.1087C29.7333 29.4329 29.3579 28.8323 28.9824 28.3818C27.9313 26.7299 26.8801 25.904 25.904 25.904ZM36.0403 17.4195C35.74 17.4195 35.4397 17.4946 35.2144 17.6447C34.0131 18.2454 33.4124 19.672 33.4875 20.1976C33.7127 21.474 34.7639 23.8016 36.0403 26.4296C37.3168 24.7777 38.2929 22.7505 38.443 20.9484C38.5181 20.1976 38.5181 19.1464 37.9925 18.5458C37.3919 17.7949 36.7161 17.4195 36.0403 17.4195Z" fill="#080717"/>
<path d="M43.0232 57.4393L52.1083 52.4087C53.6851 51.5077 54.2858 49.5555 53.3848 47.9036L48.9548 39.9447L34.0882 48.204L38.5181 56.1629C39.4191 57.7396 41.3713 58.3403 43.0232 57.4393Z" fill="#080717"/>
<path d="M51.074 42.6935L34.9177 51.6462L35.7184 53.0911L51.8747 44.1383L51.074 42.6935Z" fill="#080717"/>
<path d="M49.4342 39.5613L33.2779 48.5141L34.0786 49.9589L50.2349 41.0062L49.4342 39.5613Z" fill="#080717"/>
<path d="M52.2585 14.4912C52.0332 14.4912 51.7329 14.341 51.5827 14.1158C51.3575 13.7404 51.5077 13.2899 51.8831 13.0646L60.743 8.034C61.1184 7.80875 61.5689 7.95891 61.7942 8.33433C62.0194 8.70975 61.8693 9.16026 61.4938 9.38551L52.6339 14.4161C52.5588 14.4912 52.4087 14.4912 52.2585 14.4912Z" fill="black"/>
<path d="M46.9275 5.55623C46.7774 5.55623 46.5521 5.48114 46.4019 5.33097C46.1016 5.03064 46.1016 4.58013 46.3269 4.2798L50.0811 0.225256C50.3814 -0.0750808 50.8319 -0.0750808 51.1322 0.150172C51.4326 0.450508 51.4326 0.901012 51.2073 1.20135L47.4531 5.25589C47.378 5.48114 47.1528 5.55623 46.9275 5.55623Z" fill="black"/>
<path d="M56.9137 23.8016C56.5383 23.8016 56.238 23.5764 56.1629 23.201C56.0878 22.8255 56.3881 22.375 56.7635 22.3L62.2447 21.3239C62.6201 21.2488 63.0706 21.5491 63.1457 21.9245C63.2208 22.3 62.9204 22.7505 62.545 22.8255L57.0639 23.8016C56.9888 23.8016 56.9888 23.8016 56.9137 23.8016Z" fill="black"/>
<path d="M2.02725 44.0743C1.802 44.0743 1.50167 43.9242 1.3515 43.6989C1.12625 43.3235 1.27641 42.873 1.65183 42.6477L10.5118 37.6171C10.8872 37.3918 11.3377 37.542 11.5629 37.9174C11.7882 38.2929 11.638 38.7434 11.2626 38.9686L2.40267 43.9242C2.32759 43.9992 2.17742 44.0743 2.02725 44.0743Z" fill="black"/>
<path d="M12.3889 52.0332C12.2387 52.0332 12.0134 51.9582 11.8633 51.808C11.5629 51.5076 11.5629 51.0571 11.7882 50.7568L15.5424 46.7023C15.8427 46.4019 16.2932 46.4019 16.5936 46.6272C16.8939 46.9275 16.8939 47.378 16.6687 47.6784L12.9145 51.7329C12.8394 51.9582 12.6141 52.0332 12.3889 52.0332Z" fill="black"/>
<path d="M0.750827 30.7094C0.375406 30.7094 0.0750699 30.4841 -1.41207e-05 30.1087C-0.0750981 29.7333 0.225238 29.2828 0.600658 29.2077L6.08179 28.2316C6.45721 28.1565 6.90771 28.4569 6.9828 28.8323C7.05788 29.2077 6.75754 29.6582 6.38212 29.7333L0.900995 30.7094C0.825911 30.7094 0.825911 30.7094 0.750827 30.7094Z" fill="black"/>
<path d="M49.2551 142.209L50.907 135.001L67.3504 109.172C71.8554 95.4318 82.217 84.3945 95.582 78.9133C101.964 76.2854 108.872 75.084 115.705 75.3093L130.271 75.8349C147.54 76.4356 163.233 86.0463 171.642 101.138L198.672 149.868C200.7 153.472 201.375 157.676 200.7 161.731L199.949 166.161C198.447 175.021 190.638 181.403 181.703 181.178C176.222 181.028 171.192 178.4 167.888 174.12L150.619 150.769L133.349 155.574C118.558 159.178 103.015 156.475 90.3261 148.066L83.1931 143.335L73.1319 160.304C60.743 167.137 46.0265 156.025 49.2551 142.209Z" fill="black"/>
<path d="M82.8177 135.151V98.5854L83.4935 86.4968C83.7938 81.0157 81.9167 75.6847 78.3127 71.6302L68.0261 59.842C67.1251 58.7908 65.6985 58.4154 64.347 58.8659C62.3197 59.5416 61.4938 61.9443 62.545 63.7464L67.9511 73.2069L53.3097 77.2615L36.2656 70.579C34.6888 69.9783 32.8868 70.579 32.0609 72.0056C31.5353 72.9066 31.8356 74.0329 32.7366 74.5585L63.2958 91.2271L51.6578 135.151C51.6578 135.151 61.4938 149.417 82.8177 135.151Z" fill="white"/>
<path d="M65.248 142.209C62.7703 142.209 60.743 141.759 59.0161 141.158C53.7602 139.281 51.2073 135.677 51.0571 135.527C50.907 135.377 50.907 135.151 50.9821 134.926L62.3948 91.6025L32.3612 75.1591C31.7605 74.7837 31.31 74.2581 31.0848 73.5824C30.9346 72.9066 31.0097 72.1558 31.3851 71.5551C32.4363 69.7531 34.6137 69.0773 36.5659 69.8282L53.3848 76.4356L66.8248 72.7564L61.8693 64.1218C61.2686 63.0706 61.1184 61.7942 61.5689 60.5928C62.0194 59.4666 62.9204 58.5656 64.1218 58.1151C65.6985 57.5895 67.5006 58.04 68.6268 59.3164L78.9133 71.0295C82.6675 75.3093 84.5446 80.7904 84.2443 86.4217L83.5685 98.5103V135.076C83.5685 135.301 83.4184 135.527 83.2682 135.677C75.91 140.707 69.9032 142.209 65.248 142.209ZM52.4837 135.001C53.9854 136.878 63.2208 147.165 82.0669 134.776V98.5854L82.7426 86.4217C83.0429 81.1659 81.2409 76.0601 77.7871 72.0807L67.4255 60.3676C66.6746 59.5416 65.6235 59.2413 64.5723 59.6167C63.8214 59.842 63.2208 60.4427 62.9955 61.1935C62.6952 61.9443 62.7703 62.7703 63.1457 63.446L68.5517 72.9066C68.7019 73.1319 68.7019 73.3571 68.6268 73.5824C68.5517 73.8076 68.3265 73.9578 68.1012 74.0329L53.5349 78.0123C53.3848 78.0874 53.2346 78.0123 53.0844 78.0123L36.0403 71.2548C34.7639 70.8043 33.4124 71.2548 32.7366 72.381C32.5865 72.6063 32.5114 72.9066 32.5865 73.2069C32.6616 73.5073 32.8868 73.7325 33.1121 73.8827L63.6713 90.5514C63.9716 90.7015 64.1218 91.0769 64.0467 91.3773L52.4837 135.001Z" fill="#080717"/>
<path d="M45.576 77.6369L38.9686 66.074C38.368 65.0228 39.1939 63.6713 40.4703 63.8214C42.0471 63.9716 43.4737 64.7975 44.3747 66.074L52.4087 76.3605L45.576 77.6369Z" fill="white"/>
<path d="M45.576 78.3877C45.3508 78.3877 45.0504 78.2376 44.9003 78.0123L38.2929 66.5245C37.8424 65.7736 37.9174 64.8726 38.368 64.1969C38.8185 63.5211 39.6444 63.0706 40.4703 63.2208C42.1972 63.446 43.8491 64.347 44.9003 65.7736L52.9343 76.0601C53.1595 76.3605 53.1595 76.8861 52.7841 77.1113C52.4838 77.3366 51.9582 77.3366 51.7329 76.9611L43.774 66.5995C42.9481 65.4733 41.7467 64.7975 40.3952 64.6474C40.0949 64.6474 39.8696 64.7224 39.7195 64.9477C39.5693 65.173 39.5693 65.4733 39.7195 65.6985L46.3269 77.2615C46.5521 77.6369 46.4019 78.0874 46.0265 78.3127C45.8013 78.3877 45.6511 78.3877 45.576 78.3877Z" fill="#080717"/>
<path d="M68.5517 84.1692L58.4905 78.8382L53.0093 67.5756C52.2585 66.074 50.7568 65.0228 49.0299 64.8726C47.9036 64.7975 47.0777 65.8487 47.4531 66.8999L52.1834 81.5413L68.5517 84.1692Z" fill="white"/>
<path d="M68.5517 84.92C68.4016 84.92 68.3265 84.9201 68.1763 84.845L58.1151 79.514C57.9649 79.4389 57.8898 79.2887 57.8147 79.2137L52.3336 67.9511C51.7329 66.6746 50.4565 65.7736 48.9548 65.6235C48.6545 65.6235 48.4292 65.6985 48.279 65.9238C48.1289 66.149 48.0538 66.3743 48.1289 66.6746L52.8592 81.316C53.0093 81.6914 52.7841 82.1419 52.4087 82.2921C52.0332 82.4423 51.5827 82.217 51.4326 81.8416L46.7023 67.2002C46.477 66.4494 46.6272 65.6985 47.0777 65.0979C47.5282 64.4972 48.279 64.1969 49.105 64.1969C51.0572 64.347 52.7841 65.5484 53.6851 67.3504L59.0911 78.3877L68.9272 83.5685C69.3026 83.7938 69.4527 84.2443 69.2275 84.6197C69.0773 84.7699 68.8521 84.92 68.5517 84.92Z" fill="#080717"/>
<path d="M113.677 88.2238C119.459 89.1998 125.315 84.6948 129.069 77.1864C125.015 74.7086 121.486 69.9783 121.786 63.8965C122.237 54.2107 110.824 62.2447 110.824 62.2447C110.824 62.2447 113.902 75.6847 105.118 76.811C103.991 76.9611 104.142 78.8382 104.592 79.8894C106.694 84.4695 109.773 87.548 113.677 88.2238Z" fill="white"/>
<path d="M115.254 89.1247C114.653 89.1247 114.128 89.0497 113.527 88.9746C109.548 88.2988 106.094 85.2204 103.916 80.2648C103.541 79.514 103.241 77.9372 103.766 76.9611C103.991 76.5106 104.442 76.2103 104.967 76.1352C106.694 75.91 108.046 75.1591 108.947 73.8076C111.65 69.9032 109.998 62.545 109.998 62.4699C109.923 62.1696 110.073 61.8692 110.298 61.7191C110.974 61.2686 117.056 57.0639 120.435 58.941C121.861 59.7669 122.537 61.4187 122.462 64.0467C122.162 70.0534 125.841 74.4834 129.37 76.6608C129.67 76.886 129.82 77.2615 129.67 77.6369C126.066 84.845 120.66 89.1247 115.254 89.1247ZM113.827 87.4729C118.933 88.3739 124.339 84.5446 128.168 77.4867C124.489 75.0089 120.81 70.2787 121.111 63.9716C121.186 62.0194 120.81 60.743 119.834 60.2925C117.807 59.1662 113.602 61.4187 111.65 62.6952C112.025 64.5723 112.926 70.8793 110.223 74.7086C109.022 76.3605 107.37 77.4116 105.193 77.712C105.118 77.712 105.118 77.712 105.118 77.7871C104.892 78.1625 104.967 79.0635 105.268 79.7392C107.295 84.0941 110.298 86.8722 113.827 87.4729Z" fill="black"/>
<path d="M102.64 51.2073C102.64 51.2073 88.1487 46.5521 92.8039 37.7673C97.4591 28.9824 97.384 34.9141 97.8345 31.0848C98.285 27.3306 96.8584 18.6959 101.889 20.1976C106.92 21.6993 110.674 21.6242 116.23 18.9963C121.711 16.3683 124.564 14.4912 125.841 20.2727C127.117 26.0542 126.967 25.3033 132.974 26.2794C138.981 27.2555 140.557 28.5319 138.305 31.6104C135.977 34.6888 132.899 35.5898 135.452 38.9686C138.08 42.4225 138.38 45.6511 135.977 47.7534C133.575 49.8558 123.138 53.3848 123.138 53.3848L102.64 51.2073Z" fill="#080717"/>
<path d="M125.991 45.8763C125.991 45.8763 131.022 43.0232 131.998 45.5009C132.974 47.9036 132.148 51.9582 130.196 53.8353C128.244 55.7124 125.916 58.3403 124.865 53.61C123.739 48.8797 125.991 45.8763 125.991 45.8763Z" fill="white"/>
<path d="M126.667 56.9888C126.517 56.9888 126.291 56.9888 126.066 56.9137C124.79 56.5383 124.264 54.8864 124.039 53.7602C122.913 48.7295 125.24 45.576 125.315 45.4258C125.39 45.3508 125.465 45.2757 125.541 45.2006C125.916 44.9753 129.22 43.1733 131.247 43.9242C131.848 44.1494 132.373 44.5999 132.598 45.2006C133.65 47.9787 132.749 52.3336 130.571 54.3608L130.196 54.6612C129.145 55.8625 127.943 56.9888 126.667 56.9888ZM126.517 46.4019C126.141 47.0026 124.715 49.5555 125.541 53.3847C125.916 55.1117 126.442 55.412 126.517 55.412C127.117 55.5622 128.394 54.3608 129.22 53.5349L129.595 53.2346C131.322 51.5827 132.073 47.9036 131.247 45.7262C131.172 45.5009 131.022 45.3508 130.796 45.2757C129.82 44.9753 127.718 45.8013 126.517 46.4019Z" fill="black"/>
<path d="M99.2611 52.9342C99.2611 52.9342 97.4591 46.7773 102.114 47.6784C104.667 48.2039 107.671 51.0571 108.196 53.6851C108.722 56.313 109.698 59.6918 105.118 58.04C100.613 56.3881 99.2611 52.9342 99.2611 52.9342Z" fill="white"/>
<path d="M107.145 59.2413C106.394 59.2413 105.568 59.0161 104.892 58.7908C100.087 57.0639 98.5853 53.3847 98.5103 53.2346V53.1595C98.4352 52.7841 97.4591 49.4053 99.0358 47.7534C99.7867 46.9275 100.838 46.7023 102.264 47.0026C105.193 47.6033 108.346 50.6817 108.947 53.61L109.022 54.0605C109.397 55.9376 109.848 57.8147 108.647 58.7908C108.196 59.0911 107.671 59.2413 107.145 59.2413ZM99.9369 52.709C100.087 53.0844 101.439 55.9376 105.418 57.3642C107.07 57.9649 107.595 57.7396 107.671 57.5895C108.121 57.1389 107.746 55.412 107.52 54.2858L107.445 53.8353C106.995 51.5827 104.217 48.8797 101.964 48.4292C101.138 48.279 100.462 48.3541 100.162 48.7295C99.3362 49.6305 99.7116 51.8831 99.9369 52.709Z" fill="black"/>
<path d="M122.312 68.3265C121.936 66.975 121.786 65.4733 121.861 63.9716C122.312 54.2858 110.899 62.3198 110.899 62.3198C110.899 62.3198 113.227 73.0568 109.022 76.1352C108.797 76.2854 108.647 76.4356 108.496 76.5106C114.353 76.2854 119.609 73.0568 122.312 68.3265Z" fill="#080717"/>
<path d="M101.739 46.7774C101.739 46.7774 104.367 60.2925 110.298 65.6235C114.278 69.2275 120.885 67.05 125.24 60.3676C129.445 53.8353 129.745 30.0336 122.087 33.1871C114.428 36.3407 121.336 28.3067 117.131 30.8595C113.001 33.4124 118.633 44.9003 101.739 46.7774Z" fill="white"/>
<path d="M114.804 68.1763C112.926 68.1763 111.199 67.5005 109.773 66.2241C103.691 60.743 101.063 47.5282 100.988 46.9275C100.913 46.7023 100.988 46.477 101.138 46.3268C101.288 46.1767 101.439 46.0265 101.664 46.0265C112.626 44.8252 113.602 39.4942 114.353 35.2895C114.728 33.1871 115.104 31.1599 116.756 30.1838C117.507 29.7333 118.332 29.2828 118.933 29.7333C119.534 30.1838 119.384 31.0097 119.158 31.7605C119.083 32.0609 118.858 32.9619 119.008 33.1121C119.008 33.1121 119.459 33.4124 121.786 32.5114C123.513 31.8356 125.015 32.211 126.216 33.6376C130.196 38.3679 129.37 55.2618 125.841 60.8181C123.213 64.9477 119.609 67.5756 116.005 68.1012C115.629 68.1012 115.179 68.1763 114.804 68.1763ZM102.64 47.4531C103.316 50.3814 105.944 60.743 110.824 65.0979C112.176 66.2992 113.902 66.8248 115.78 66.5995C118.933 66.149 122.162 63.7463 124.564 59.9921C126.066 57.5895 127.192 52.4837 127.343 46.9275C127.493 41.2211 126.667 36.4908 125.015 34.5387C124.264 33.6376 123.363 33.4124 122.312 33.8629C120.059 34.7639 118.783 34.9141 118.032 34.2383C117.206 33.4875 117.507 32.2861 117.657 31.3851V31.31C117.582 31.31 117.507 31.3851 117.431 31.4602C116.38 32.136 116.08 33.6376 115.705 35.5898C115.029 39.9447 113.902 45.8763 102.64 47.4531Z" fill="black"/>
<path d="M115.254 58.4905C113.902 58.4905 112.626 57.214 111.275 55.3369C111.124 55.1868 111.124 54.9615 111.124 54.7363C111.199 54.511 111.275 54.3608 111.5 54.2107C113.602 52.9342 116.305 51.4326 117.281 51.5076C117.507 51.5076 118.107 51.6578 118.332 52.5588C118.633 53.8353 118.182 57.0639 116.831 57.9649C116.23 58.3403 115.705 58.4905 115.254 58.4905ZM112.926 55.1868C114.728 57.5144 115.329 57.1389 115.93 56.7635C116.606 56.3881 116.981 54.0605 116.831 53.1595C116.155 53.3848 114.503 54.2858 112.926 55.1868Z" fill="black"/>
<path d="M113.677 51.1322C112.926 51.1322 111.35 50.9821 110.599 50.006C110.298 49.5555 109.998 48.8046 110.449 47.7534C111.5 45.2757 111.575 42.1221 111.575 42.0471C111.575 41.5966 111.95 41.2962 112.326 41.2962C112.776 41.2962 113.077 41.6716 113.077 42.0471C113.077 42.1972 113.001 45.5009 111.875 48.279C111.725 48.6545 111.725 48.9548 111.8 49.105C112.1 49.5555 113.377 49.6305 113.978 49.6305C114.428 49.6305 114.728 49.9309 114.803 50.3063C114.803 50.7568 114.503 51.0571 114.128 51.1322C114.053 51.1322 113.902 51.1322 113.677 51.1322Z" fill="black"/>
<path d="M116.906 44.675C116.756 44.675 116.606 44.5999 116.455 44.5248C116.155 44.2996 116.005 43.8491 116.305 43.4737C116.38 43.3235 117.131 42.3474 119.083 41.6716C121.336 40.9208 122.837 42.3474 123.363 43.1733C123.588 43.5487 123.438 43.9992 123.063 44.2245C122.687 44.4497 122.237 44.2996 122.012 43.9242C121.936 43.774 121.186 42.5726 119.534 43.0982C118.107 43.5487 117.582 44.2996 117.582 44.2996C117.356 44.5248 117.131 44.675 116.906 44.675Z" fill="black"/>
<path d="M119.233 43.9242C119.158 44.9002 119.684 45.7262 120.36 45.8013C121.035 45.8763 121.711 45.1255 121.711 44.1494C121.786 43.1733 121.261 42.3474 120.585 42.2723C119.909 42.2723 119.309 42.9481 119.233 43.9242Z" fill="black"/>
<path d="M155.574 140.407C155.274 140.407 155.049 140.257 154.898 139.957L144.837 117.957C144.687 117.582 144.837 117.131 145.213 116.981C145.588 116.831 146.038 116.981 146.189 117.356L156.25 139.356C156.4 139.731 156.25 140.182 155.874 140.332C155.799 140.407 155.649 140.407 155.574 140.407Z" fill="white"/>
<path d="M181.854 150.844L136.127 127.793L116.53 122.762L93.6298 128.694C92.5786 128.994 92.2032 130.271 92.879 131.022C94.3806 132.674 96.6332 133.499 98.8106 133.124L114.353 130.646L94.681 136.728C93.1042 137.179 92.6537 139.131 93.78 140.332C94.8311 141.383 96.4079 141.909 97.9096 141.609L118.032 137.854L103.541 142.585C101.814 143.185 101.288 145.363 102.64 146.639C103.241 147.165 104.066 147.465 104.817 147.24L116.53 144.837L112.401 147.465C110.749 148.516 110.749 150.919 112.401 151.97C113.152 152.496 114.128 152.571 114.954 152.195L125.015 147.84L137.103 153.922C140.783 155.799 144.762 157.076 148.892 157.752L154.598 158.653L166.912 171.867L172.618 172.318C184.331 173.219 190.638 158.728 181.854 150.844Z" fill="white"/>
<path d="M173.594 173.069C173.219 173.069 172.843 173.069 172.468 172.994L166.762 172.543C166.612 172.543 166.386 172.468 166.236 172.318L154.148 159.328L148.666 158.427C144.462 157.752 140.407 156.475 136.653 154.523L124.865 148.591L115.104 152.796C114.053 153.247 112.776 153.171 111.8 152.496C110.824 151.82 110.223 150.769 110.223 149.567C110.223 148.366 110.824 147.315 111.8 146.714L112.551 146.264L104.742 147.84C103.691 148.066 102.64 147.765 101.889 147.015C101.063 146.264 100.763 145.137 100.988 144.011C101.213 142.885 102.039 142.059 103.09 141.684L106.619 140.557L97.8345 142.209C96.1076 142.51 94.3056 141.984 93.0291 140.707C92.2783 139.957 92.053 138.981 92.2783 137.929C92.5035 136.953 93.2544 136.127 94.2305 135.827L103.616 132.899L98.7355 133.725C96.2577 134.1 93.78 133.274 92.1281 131.322C91.6025 130.721 91.4524 129.97 91.6776 129.22C91.9029 128.469 92.5035 127.943 93.2544 127.718L116.155 121.786C116.305 121.786 116.38 121.786 116.53 121.786L136.127 126.817C136.202 126.817 136.202 126.817 136.278 126.892L182.004 149.943C182.079 149.943 182.154 150.018 182.154 150.093C186.359 153.922 187.635 159.779 185.383 165.035C183.505 170.065 178.85 173.069 173.594 173.069ZM167.287 171.117L172.693 171.567C178.775 172.093 182.679 168.263 184.256 164.584C185.833 160.905 185.908 155.574 181.478 151.445L135.902 128.469L116.53 123.513L93.78 129.37C93.4046 129.445 93.3295 129.745 93.2544 129.82C93.2544 129.895 93.1793 130.196 93.4046 130.496C94.7561 131.998 96.7082 132.674 98.6604 132.373L114.203 129.895C114.578 129.82 114.954 130.046 115.029 130.496C115.104 130.871 114.879 131.247 114.503 131.397L94.8312 137.479C94.3806 137.629 94.0052 138.004 93.8551 138.455C93.7049 138.905 93.8551 139.431 94.2305 139.806C95.1315 140.707 96.4079 141.158 97.6843 140.858L117.807 137.103C118.182 137.028 118.558 137.254 118.708 137.629C118.783 138.004 118.558 138.38 118.182 138.53L103.691 143.26C103.09 143.411 102.715 143.936 102.565 144.462C102.415 145.062 102.64 145.663 103.015 146.038C103.391 146.414 103.991 146.564 104.517 146.489L116.23 144.086C116.606 144.011 116.906 144.236 117.056 144.537C117.206 144.837 117.056 145.288 116.756 145.438L112.626 148.066C112.025 148.441 111.725 149.042 111.725 149.718C111.725 150.393 112.025 150.994 112.626 151.369C113.152 151.745 113.902 151.82 114.503 151.52L124.564 147.165C124.79 147.09 125.015 147.09 125.24 147.165L137.329 153.247C141.008 155.124 144.837 156.325 148.892 157.001L154.598 157.902C154.748 157.902 154.898 157.977 155.049 158.127L167.287 171.117Z" fill="#080717"/>
<path d="M116.53 145.588C116.23 145.588 115.93 145.438 115.855 145.137C115.705 144.762 115.855 144.312 116.23 144.161L122.687 141.383C123.063 141.233 123.513 141.383 123.663 141.759C123.814 142.134 123.663 142.585 123.288 142.735L116.831 145.513C116.756 145.513 116.606 145.588 116.53 145.588Z" fill="#080717"/>
</g>
<defs>
<clipPath id="clip0_4_2">
<rect width="201" height="182" fill="white"/>
</clipPath>
</defs>
</svg>
